<svg width="98" height="30" viewBox="0 0 98 30" fill="none" xmlns="http://www.w3.org/2000/svg">
<g clip-path="url(#clip0_1_2679)">
<path d="M28.2895 21.2617C28.1374 20.896 27.9948 20.5117 27.8428 20.1835L27.1395 18.6179L27.111 18.5898C25.0201 14.0898 22.7866 9.51478 20.4201 5.01478L20.3251 4.82728C20.0875 4.38665 19.8499 3.89915 19.6028 3.44915C19.2987 2.91478 19.004 2.3429 18.5193 1.79915C18.0469 1.23022 17.4522 0.771831 16.7784 0.457081C16.1045 0.142331 15.3682 -0.0209351 14.6227 -0.0209351C13.8771 -0.0209351 13.1408 0.142331 12.4669 0.457081C11.7931 0.771831 11.1985 1.23022 10.726 1.79915C10.2793 2.3429 9.94668 2.91478 9.64255 3.44915C9.40495 3.93665 9.16735 4.41478 8.92024 4.8554L8.8252 5.0429C6.49671 9.5429 4.22525 14.1179 2.13436 18.6179L2.07733 18.6742C1.86825 19.1617 1.62114 19.6679 1.38354 20.2117C1.23148 20.5398 1.07941 20.896 0.927346 21.2898C0.516802 22.3208 0.385703 23.4396 0.546968 24.5359C0.708233 25.6321 1.1563 26.668 1.847 27.5414C2.5377 28.4148 3.4472 29.0956 4.48587 29.5168C5.52454 29.9379 6.65652 30.0847 7.77025 29.9429C8.838 29.8043 9.86615 29.4534 10.7925 28.9117C12.0281 28.2273 13.2161 27.2335 14.5466 25.7992C15.8772 27.2335 17.0937 28.2273 18.3007 28.921C19.4615 29.5931 20.7759 29.964 22.1214 29.9992C23.6794 30.0055 25.1872 29.4557 26.3663 28.4511C27.5454 27.4465 28.3163 26.055 28.5366 24.5335C28.7911 23.4402 28.705 22.2965 28.2895 21.2523V21.2617ZM14.6417 22.8179C13.007 20.7554 11.9425 18.8617 11.5814 17.2398C11.4317 16.6388 11.3995 16.0152 11.4863 15.4023C11.5529 14.9242 11.7334 14.5023 11.9805 14.146C12.5508 13.3304 13.5487 12.8242 14.6417 12.8242C15.1607 12.8085 15.6756 12.9202 16.1401 13.1493C16.6045 13.3784 17.0041 13.7177 17.3028 14.1367C17.5499 14.5117 17.7305 14.9242 17.7875 15.4023C17.8825 15.946 17.8445 16.5742 17.6925 17.2398C17.3313 18.8335 16.2669 20.746 14.6417 22.8179ZM26.7498 24.2054C26.6418 24.9779 26.3305 25.7089 25.847 26.3257C25.3634 26.9426 24.7244 27.4236 23.9936 27.721C23.2713 28.021 22.473 28.1054 21.6937 28.021C20.9333 27.9273 20.173 27.6835 19.3937 27.2335C18.0997 26.4446 16.9362 25.4645 15.9437 24.3273C17.9396 21.8898 19.1466 19.6679 19.6028 17.6898C19.8214 16.7523 19.8499 15.9085 19.7548 15.1304C19.6362 14.3929 19.3574 13.6893 18.9375 13.0679C18.4581 12.3941 17.8182 11.8468 17.0742 11.474C16.3301 11.1013 15.5046 10.9146 14.6702 10.9304C12.9119 10.9304 11.3438 11.7367 10.3934 13.0585C9.96553 13.6784 9.68903 14.3875 9.58552 15.1304C9.46197 15.9179 9.49048 16.7898 9.73759 17.6898C10.1938 19.6679 11.4293 21.9179 13.3966 24.346C12.421 25.5049 11.2548 26.4937 9.94668 27.271C9.15784 27.721 8.40702 27.9554 7.6467 28.0492C6.46429 28.1986 5.26988 27.8816 4.3231 27.1671C3.37632 26.4526 2.75369 25.3984 2.59055 24.2335C2.49551 23.4835 2.56204 22.7335 2.86617 21.8898C2.96121 21.5898 3.10377 21.2898 3.25584 20.9335C3.46492 20.446 3.71203 19.9398 3.94963 19.4335L3.98765 19.3679C6.04052 14.896 8.28347 10.3304 10.612 5.85853L10.707 5.67103C10.9446 5.22103 11.1822 4.7429 11.4293 4.2929C11.6764 3.81478 11.9425 3.3554 12.2847 2.9804C12.5808 2.63167 12.9509 2.35122 13.3688 2.1588C13.7867 1.96637 14.2423 1.86664 14.7034 1.86664C15.1646 1.86664 15.6202 1.96637 16.0381 2.1588C16.456 2.35122 16.8261 2.63167 17.1222 2.9804C17.4549 3.3554 17.7305 3.81478 17.9776 4.2929C18.2152 4.7429 18.4528 5.2304 18.6999 5.67103L18.7949 5.85853C21.1139 10.3304 23.3569 14.896 25.4478 19.3679L25.4763 19.396C25.7234 19.8835 25.9325 20.4273 26.1701 20.896C26.3221 21.2617 26.4742 21.5523 26.5692 21.8617C26.7498 22.7054 26.8449 23.4554 26.7498 24.2054ZM39.9794 22.6117C39.2633 22.622 38.5539 22.4731 37.904 22.1761C37.2542 21.8791 36.6804 21.4416 36.2253 20.896C35.2028 19.7335 34.6601 18.2345 34.7047 16.696C34.689 15.124 35.2493 13.5993 36.2824 12.4023C36.7602 11.8497 37.3551 11.4072 38.025 11.106C38.695 10.8047 39.4238 10.652 40.16 10.6585C40.8528 10.6398 41.539 10.7952 42.1542 11.1101C42.7693 11.425 43.2932 11.889 43.6765 12.4585L43.7715 10.9867H46.5467V22.3117H43.762L43.667 20.6617C43.2718 21.2698 42.7256 21.7681 42.0802 22.1094C41.4348 22.4507 40.7116 22.6236 39.9794 22.6117ZM40.7017 19.9117C41.253 19.9117 41.7377 19.7617 42.1939 19.4898C42.6121 19.1898 42.9542 18.796 43.2203 18.3179C43.4579 17.8398 43.5815 17.2679 43.5815 16.6304C43.6185 16.0767 43.5093 15.523 43.2644 15.0235C43.0195 14.5239 42.6474 14.0956 42.1844 13.7804C41.7395 13.507 41.2259 13.3621 40.7017 13.3621C40.1776 13.3621 39.664 13.507 39.2191 13.7804C38.8009 14.0804 38.4588 14.4742 38.1927 14.9523C37.9413 15.4796 37.8177 16.0573 37.8315 16.6398C37.7945 17.1935 37.9037 17.7472 38.1486 18.2467C38.3935 18.7463 38.7656 19.1746 39.2286 19.4898C39.6753 19.7617 40.16 19.9117 40.7017 19.9117ZM51.2987 7.9304C51.2987 8.25853 51.2417 8.55853 51.0897 8.80228C50.9376 9.03666 50.7285 9.25228 50.4529 9.40228C50.1773 9.55228 49.8826 9.60853 49.5785 9.60853C49.2744 9.60853 48.9703 9.55228 48.6946 9.40228C48.434 9.25913 48.2148 9.05259 48.0579 8.80228C47.9107 8.53522 47.8385 8.23421 47.8488 7.9304C47.8488 7.5929 47.9153 7.2929 48.0579 7.05853C48.2099 6.77728 48.4285 6.60853 48.6946 6.45853C48.9703 6.30853 49.2649 6.2429 49.5785 6.2429C49.881 6.23603 50.1802 6.3067 50.4467 6.44802C50.7133 6.58934 50.9381 6.79647 51.0992 7.04915C51.2375 7.32248 51.306 7.625 51.2987 7.9304ZM48.0674 22.2742V10.9679H51.0897V22.2929H48.0579L48.0674 22.2742ZM59.1681 13.9304V13.9679C59.0255 13.9023 58.8354 13.8742 58.6929 13.846C58.5028 13.8085 58.3507 13.8085 58.1702 13.8085C57.3243 13.8085 56.6875 14.0523 56.2694 14.5585C55.8132 15.0742 55.6041 15.796 55.6041 16.7242V22.2835H52.5723V10.9585H55.357L55.452 12.6742C55.7561 12.0742 56.1173 11.6242 56.6305 11.2867C57.141 10.9587 57.742 10.795 58.3507 10.8179C58.5693 10.8179 58.7784 10.8367 58.959 10.8742C59.054 10.9023 59.1111 10.9023 59.1681 10.9304V13.9304ZM60.3846 22.2742V6.3179H63.4069V12.4117C63.8346 11.8679 64.3193 11.446 64.9275 11.1179C65.8905 10.6522 66.9844 10.5201 68.0328 10.7429C69.0812 10.9657 70.0229 11.5305 70.706 12.346C71.7308 13.511 72.2737 15.0137 72.2266 16.5554C72.2423 18.1274 71.6821 19.6521 70.649 20.8492C70.1711 21.4017 69.5762 21.8442 68.9063 22.1455C68.2363 22.4467 67.5076 22.5995 66.7713 22.5929C66.0785 22.6116 65.3923 22.4562 64.7772 22.1413C64.162 21.8265 63.6382 21.3624 63.2548 20.7929L63.1598 22.2648L60.3846 22.2929V22.2742ZM66.2296 19.9117C66.7713 19.9117 67.256 19.7617 67.7122 19.4898C68.1304 19.1898 68.4725 18.796 68.7387 18.3179C68.9858 17.8398 69.0998 17.2679 69.0998 16.6304C69.0998 16.0023 68.9858 15.4304 68.7387 14.9523C68.4891 14.4912 68.1384 14.0909 67.7122 13.7804C67.2674 13.507 66.7537 13.3621 66.2296 13.3621C65.7055 13.3621 65.1918 13.507 64.747 13.7804C64.3193 14.0804 63.9866 14.4742 63.711 14.9523C63.4597 15.4796 63.336 16.0573 63.3499 16.6398C63.3128 17.1935 63.4221 17.7472 63.667 18.2467C63.9119 18.7463 64.284 19.1746 64.747 19.4898C65.1936 19.7617 65.6784 19.9117 66.2296 19.9117ZM73.3671 22.2835V10.9585H76.1518L76.2468 12.4304C76.5968 11.8662 77.0932 11.4045 77.6847 11.093C78.2762 10.7814 78.9413 10.6315 79.6113 10.6585C80.3774 10.6455 81.1304 10.8555 81.7761 11.2624C82.4219 11.6692 82.9317 12.2549 83.2418 12.946C83.5745 13.6585 83.755 14.5398 83.755 15.5242V22.3117H80.7233V15.9179C80.7233 15.1304 80.5427 14.5117 80.1815 14.0523C79.8204 13.6023 79.3262 13.3585 78.6989 13.3585C78.2427 13.3585 77.8435 13.4523 77.4919 13.6585C77.1592 13.8742 76.8836 14.146 76.6745 14.5304C76.4631 14.9189 76.3583 15.3552 76.3704 15.796V22.2835H73.3671ZM85.2662 22.2835V6.30853H88.298V12.4023C88.7086 11.8555 89.2428 11.4107 89.8582 11.1031C90.4736 10.7955 91.1531 10.6337 91.843 10.6304C92.5591 10.6201 93.2685 10.7689 93.9184 11.0659C94.5682 11.3629 95.142 11.8004 95.5971 12.346C96.6146 13.5109 97.1536 15.009 97.1082 16.546C97.1247 18.1182 96.5644 19.6432 95.5305 20.8398C95.0527 21.3923 94.4578 21.8348 93.7879 22.1361C93.1179 22.4374 92.3892 22.5901 91.6529 22.5835C90.9601 22.6022 90.2739 22.4468 89.6587 22.132C89.0436 21.8171 88.5197 21.3531 88.1364 20.7835L88.0509 22.2554L85.2662 22.2835ZM91.1397 19.9117C91.6909 19.9117 92.1756 19.7617 92.6223 19.4898C93.05 19.1898 93.3826 18.796 93.6582 18.3179C93.8958 17.8398 94.0194 17.2679 94.0194 16.6304C94.0564 16.0767 93.9472 15.523 93.7023 15.0235C93.4574 14.5239 93.0853 14.0956 92.6223 13.7804C92.1775 13.507 91.6638 13.3621 91.1397 13.3621C90.6155 13.3621 90.1019 13.507 89.657 13.7804C89.2389 14.0804 88.8967 14.4742 88.6306 14.9523C88.3653 15.4749 88.2409 16.056 88.2695 16.6398C88.2324 17.1935 88.3417 17.7472 88.5866 18.2467C88.8314 18.7463 89.2036 19.1746 89.6665 19.4898C90.1132 19.7617 90.5694 19.9117 91.1397 19.9117Z" fill="#FF385C"/>
</g>
<defs>
<clipPath id="clip0_1_2679">
<rect width="96.9412" height="30" fill="white" transform="translate(0.5 0.00012207)"/>
</clipPath>
</defs>
</svg>
