<svg width="98" height="30" viewBox="0 0 98 30" fill="none" xmlns="http://www.w3.org/2000/svg">
<g clip-path="url(#clip0_1_2683)">
<path fill-rule="evenodd" clip-rule="evenodd" d="M60.6402 23.461C55.0068 27.7251 46.8415 30.0001 39.8114 30.0001C29.9539 30.0001 21.0797 26.2561 14.3661 20.029C13.8386 19.5393 14.3112 18.872 14.9442 19.2533C22.1895 23.5824 31.1481 26.1867 40.4021 26.1867C46.6432 26.1867 53.5088 24.8607 59.8216 22.109C60.7753 21.693 61.5728 22.7504 60.6402 23.461Z" fill="#FF9900"/>
<path fill-rule="evenodd" clip-rule="evenodd" d="M62.9824 20.7094C62.2651 19.7647 58.2225 20.2631 56.408 20.4841C55.8552 20.5534 55.7708 20.0594 56.2688 19.704C59.4885 17.377 64.7716 18.0487 65.3877 18.8287C66.0038 19.613 65.2274 25.0514 62.2018 27.6471C61.7376 28.0458 61.2945 27.8335 61.5013 27.3048C62.1807 25.5628 63.704 21.6584 62.9824 20.7094Z" fill="#FF9900"/>
<path fill-rule="evenodd" clip-rule="evenodd" d="M56.5349 3.27617V1.01414C56.5349 0.671807 56.7881 0.442139 57.0919 0.442139H66.9535C67.27 0.442139 67.5232 0.676141 67.5232 1.01414V2.95116C67.519 3.27617 67.2531 3.70084 66.7805 4.37251L61.6703 11.8649C63.5693 11.8173 65.5737 12.1076 67.2953 13.1043C67.6835 13.3296 67.789 13.6589 67.8186 13.9839V16.3976C67.8186 16.727 67.4641 17.1126 67.0928 16.9133C64.0587 15.2796 60.0288 15.102 56.6741 16.9306C56.3323 17.1213 55.9736 16.74 55.9736 16.4106V14.1183C55.9736 13.7499 55.9778 13.1216 56.3365 12.5626L62.2569 3.84384H57.1045C56.788 3.84384 56.5349 3.61417 56.5349 3.27617Z" fill="#1D1E25"/>
<path fill-rule="evenodd" clip-rule="evenodd" d="M20.5611 17.39H17.5608C17.2739 17.3683 17.046 17.1473 17.0249 16.8656V1.05314C17.0249 0.736803 17.2823 0.485465 17.603 0.485465H20.4007C20.6919 0.498457 20.924 0.728134 20.9451 1.01414V3.08116H20.9999C21.73 1.08347 23.1014 0.151794 24.9497 0.151794C26.8275 0.151794 28.0006 1.08347 28.8445 3.08116C29.5703 1.08347 31.2203 0.151794 32.9884 0.151794C34.2459 0.151794 35.6215 0.6848 36.4612 1.88081C37.4107 3.21116 37.2166 5.14384 37.2166 6.8382L37.2124 16.818C37.2124 17.1343 36.955 17.39 36.6343 17.39H33.6382C33.3386 17.3683 33.0981 17.1213 33.0981 16.818V8.43721C33.0981 7.76987 33.1571 6.10586 33.0137 5.47318C32.79 4.41151 32.1191 4.1125 31.2498 4.1125C30.524 4.1125 29.7644 4.61084 29.4564 5.40818C29.1484 6.20552 29.1779 7.5402 29.1779 8.43721V16.818C29.1779 17.1343 28.9205 17.39 28.5998 17.39H25.6037C25.2999 17.3683 25.0636 17.1213 25.0636 16.818L25.0594 8.43721C25.0594 6.67353 25.3421 4.07783 23.2111 4.07783C21.0548 4.07783 21.1392 6.60852 21.1392 8.43721V16.818C21.1392 17.1343 20.8818 17.39 20.5611 17.39" fill="#1D1E25"/>
<path fill-rule="evenodd" clip-rule="evenodd" d="M76.0129 0.151794C80.4648 0.151794 82.8743 4.07784 82.8743 9.06989C82.8743 13.8929 80.2116 17.7193 76.0129 17.7193C71.6412 17.7193 69.2612 13.7933 69.2612 8.90089C69.2612 3.97817 71.6707 0.151794 76.0129 0.151794ZM76.0382 3.38016C73.827 3.38016 73.6878 6.47419 73.6878 8.40255C73.6878 10.3352 73.6583 14.4606 76.0129 14.4606C78.338 14.4606 78.4477 11.1326 78.4477 9.10455C78.4477 7.76987 78.3929 6.17519 78.0004 4.90984C77.6628 3.80917 76.9919 3.38016 76.0382 3.38016Z" fill="#1D1E25"/>
<path fill-rule="evenodd" clip-rule="evenodd" d="M88.6472 17.39H85.6596C85.36 17.3683 85.1194 17.1213 85.1194 16.818L85.1152 1.00114C85.1406 0.7108 85.3895 0.485465 85.6933 0.485465H88.4742C88.7358 0.498457 88.951 0.680467 89.0101 0.92747V3.34549H89.065C89.9047 1.18314 91.082 0.151794 93.1539 0.151794C94.5 0.151794 95.8124 0.650134 96.6563 2.01515C97.4412 3.28049 97.4412 5.40818 97.4412 6.93786V16.8916C97.4075 17.169 97.1585 17.39 96.8631 17.39H93.8544C93.5801 17.3683 93.3523 17.1603 93.3227 16.8916V8.30288C93.3227 6.57386 93.5168 4.04317 91.4449 4.04317C90.7149 4.04317 90.0439 4.54584 89.7106 5.30851C89.2886 6.27486 89.2337 7.23687 89.2337 8.30288V16.818C89.2295 17.1343 88.9679 17.39 88.6472 17.39" fill="#1D1E25"/>
<path fill-rule="evenodd" clip-rule="evenodd" d="M48.673 9.83689C48.673 11.0372 48.7025 12.0382 48.1117 13.1043C47.6349 13.9709 46.8754 14.5039 46.0356 14.5039C44.8836 14.5039 44.2084 13.6026 44.2084 12.2723C44.2084 9.64622 46.4998 9.16955 48.673 9.16955V9.83689ZM51.6986 17.3466C51.5002 17.5286 51.2133 17.5416 50.9896 17.4203C49.9938 16.571 49.8123 16.1766 49.268 15.3663C47.6223 17.091 46.4534 17.6066 44.3224 17.6066C41.7947 17.6066 39.8325 16.0076 39.8325 12.8053C39.8325 10.3049 41.1491 8.60188 43.0311 7.76987C44.66 7.03319 46.9344 6.9032 48.673 6.69953V6.30086C48.673 5.56851 48.7278 4.70184 48.3059 4.06917C47.943 3.50149 47.2425 3.26749 46.6222 3.26749C45.4786 3.26749 44.4616 3.86983 44.2127 5.11784C44.162 5.39518 43.9637 5.66818 43.6894 5.68118L40.782 5.36051C40.5372 5.30418 40.2629 5.10051 40.3347 4.71484C41.0014 1.09214 44.1916 0.00012207 47.0441 0.00012207C48.5042 0.00012207 50.4115 0.398794 51.5635 1.53414C53.0236 2.93382 52.8843 4.80151 52.8843 6.83386V11.6352C52.8843 13.0783 53.4667 13.7109 54.0152 14.4909C54.2051 14.7683 54.2473 15.1019 54.0026 15.3099C53.3907 15.8343 52.302 16.8093 51.7028 17.3553L51.6986 17.3466" fill="#1D1E25"/>
<path fill-rule="evenodd" clip-rule="evenodd" d="M9.34046 9.83713C9.34046 11.0375 9.36999 12.0385 8.77922 13.1045C8.30238 13.9712 7.54704 14.5042 6.70309 14.5042C5.55108 14.5042 4.88014 13.6028 4.88014 12.2725C4.88014 9.64647 7.17148 9.1698 9.34046 9.1698V9.83713ZM12.366 17.3469C12.1677 17.5289 11.8808 17.5419 11.6571 17.4205C10.6612 16.5712 10.484 16.1769 9.93544 15.3665C8.28973 17.0912 7.12507 17.6069 4.98985 17.6069C2.46642 17.6069 0.5 16.0079 0.5 12.8055C0.5 10.3051 1.82079 8.60212 3.6986 7.77011C5.32744 7.03344 7.6019 6.90344 9.34046 6.69977V6.3011C9.34046 5.56876 9.39531 4.70208 8.97755 4.06941C8.61043 3.50174 7.90995 3.26773 7.29386 3.26773C6.1503 3.26773 5.12911 3.87007 4.88014 5.11808C4.8295 5.39542 4.63117 5.66843 4.36111 5.68143L1.44945 5.36075C1.2047 5.30442 0.934637 5.10075 1.00215 4.71508C1.6731 1.09238 4.85904 0.000366211 7.71162 0.000366211C9.17166 0.000366211 11.079 0.399038 12.231 1.53438C13.6911 2.93406 13.5518 4.80175 13.5518 6.8341V11.6355C13.5518 13.0785 14.1341 13.7112 14.6827 14.4912C14.8768 14.7685 14.919 15.1022 14.6743 15.3102C14.0624 15.8345 12.9737 16.8095 12.3745 17.3555L12.366 17.3469" fill="#1D1E25"/>
</g>
<defs>
<clipPath id="clip0_1_2683">
<rect width="96.9412" height="30" fill="white" transform="translate(0.5 0.00012207)"/>
</clipPath>
</defs>
</svg>
