<svg width="95" height="30" viewBox="0 0 95 30" fill="none" xmlns="http://www.w3.org/2000/svg">
<g id="FedEx Logo" clip-path="url(#clip0_1_2694)">
<g id="g15">
<g id="g17">
<path id="polygon19" d="M70.4307 28.2209L78.2797 19.5616L70.4307 10.9011H78.7122L82.5997 15.1078L86.3431 10.9011H94.3357L86.524 19.5259L94.4429 28.2209H86.1274L82.2752 23.9796L78.4593 28.2209H70.4307Z" fill="#FF6600"/>
<path id="polygon21" d="M70.4308 7.01865H61.5411V10.9011H70.4308V16.7523H61.5411V22.123H70.4308V28.2209H55.0073V0.937622H70.4308V7.01865Z" fill="#FF6600"/>
</g>
<path id="path23" d="M48.5012 0.937622V12.1032H48.4295C46.9891 10.4776 45.1894 9.91271 43.1013 9.91271C38.8238 9.91271 35.6017 12.7678 34.4707 16.5426C33.1808 12.3833 29.8544 9.83476 24.9218 9.83476C20.9161 9.83476 17.7529 11.6002 16.1022 14.477V10.9015H7.82228V7.01945H16.858V0.937622H0.441406V28.2213H7.82228V16.7523H15.179C14.9597 17.5949 14.8426 18.4969 14.8426 19.4487C14.8426 25.14 19.2707 29.1333 24.9218 29.1333C29.6739 29.1333 32.8056 26.9428 34.4621 22.949H28.137C27.2813 24.1488 26.6323 24.5052 24.9218 24.5052C22.9384 24.5052 21.2283 22.806 21.2283 20.7919H34.1077C34.6663 25.3124 38.2526 29.2109 43.1741 29.2109C45.2971 29.2109 47.2408 28.1855 48.4295 26.4542H48.5012V28.2205H55.0075V0.937622H48.5012ZM21.4337 16.8339C21.8442 15.101 23.213 13.9683 24.9218 13.9683C26.8029 13.9683 28.1022 15.066 28.4439 16.8339C28.5879 16.8339 21.4337 16.8339 21.4337 16.8339ZM44.5527 24.0668C42.1543 24.0668 40.664 21.8727 40.664 19.5817C40.664 17.1328 41.9604 14.7779 44.5527 14.7779C47.2408 14.7779 48.3117 17.1328 48.3117 19.5817C48.3113 21.904 47.1765 24.0668 44.5527 24.0668Z" fill="#652C8F"/>
</g>
</g>
<defs>
<clipPath id="clip0_1_2694">
<rect width="94.1176" height="28.125" fill="white" transform="translate(0.441406 0.937622)"/>
</clipPath>
</defs>
</svg>
