<svg width="90" height="30" viewBox="0 0 90 30" fill="none" xmlns="http://www.w3.org/2000/svg">
<g id="Google Logo" clip-path="url(#clip0_1_2711)">
<path id="Vector" d="M38.3141 15.385C38.3141 19.5491 35.0302 22.6176 31 22.6176C26.9699 22.6176 23.686 19.5491 23.686 15.385C23.686 11.1915 26.9699 8.15234 31 8.15234C35.0302 8.15234 38.3141 11.1915 38.3141 15.385ZM35.1123 15.385C35.1123 12.7828 33.209 11.0023 31 11.0023C28.7911 11.0023 26.8878 12.7828 26.8878 15.385C26.8878 17.961 28.7911 19.7676 31 19.7676C33.209 19.7676 35.1123 17.9578 35.1123 15.385Z" fill="#EA4335"/>
<path id="Vector_2" d="M54.0924 15.385C54.0924 19.5491 50.8085 22.6176 46.7784 22.6176C42.7483 22.6176 39.4644 19.5491 39.4644 15.385C39.4644 11.1947 42.7483 8.15234 46.7784 8.15234C50.8085 8.15234 54.0924 11.1915 54.0924 15.385ZM50.8906 15.385C50.8906 12.7828 48.9874 11.0023 46.7784 11.0023C44.5694 11.0023 42.6661 12.7828 42.6661 15.385C42.6661 17.961 44.5694 19.7676 46.7784 19.7676C48.9874 19.7676 50.8906 17.9578 50.8906 15.385Z" fill="#FBBC05"/>
<path id="Vector_3" d="M69.2135 8.5893V21.5741C69.2135 26.9154 66.0381 29.0969 62.2841 29.0969C58.7503 29.0969 56.6235 26.7523 55.8214 24.835L58.609 23.6839C59.1054 24.861 60.3216 26.2502 62.2808 26.2502C64.6837 26.2502 66.1728 24.7795 66.1728 22.011V20.9708H66.0611C65.3445 21.848 63.9638 22.6143 62.2216 22.6143C58.5761 22.6143 55.2363 19.4643 55.2363 15.411C55.2363 11.3284 58.5761 8.15234 62.2216 8.15234C63.9606 8.15234 65.3412 8.91865 66.0611 9.76973H66.1728V8.59256H69.2135V8.5893ZM66.3997 15.411C66.3997 12.8643 64.687 11.0023 62.5076 11.0023C60.2986 11.0023 58.4479 12.8643 58.4479 15.411C58.4479 17.9317 60.2986 19.7676 62.5076 19.7676C64.687 19.7676 66.3997 17.9317 66.3997 15.411Z" fill="#4285F4"/>
<path id="Vector_4" d="M74.2263 0.978394V22.174H71.1035V0.978394H74.2263Z" fill="#34A853"/>
<path id="Vector_5" d="M86.396 17.7654L88.8812 19.4088C88.0791 20.586 86.1462 22.6143 82.8064 22.6143C78.6645 22.6143 75.5713 19.4382 75.5713 15.3817C75.5713 11.0806 78.6908 8.14905 82.4481 8.14905C86.2317 8.14905 88.0824 11.136 88.6872 12.7501L89.0192 13.5719L79.2727 17.5762C80.0189 19.0273 81.1793 19.7675 82.8064 19.7675C84.4369 19.7675 85.5677 18.9719 86.396 17.7654ZM78.7467 15.1632L85.262 12.4795C84.9036 11.5762 83.8254 10.9469 82.5566 10.9469C80.9294 10.9469 78.6645 12.3719 78.7467 15.1632Z" fill="#EA4335"/>
<path id="Vector_6" d="M11.8655 13.5034V10.435H22.2892C22.3911 10.9697 22.4437 11.6024 22.4437 12.2871C22.4437 14.5893 21.8093 17.4361 19.7646 19.4643C17.7759 21.5187 15.2349 22.6143 11.8688 22.6143C5.62967 22.6143 0.383301 17.573 0.383301 11.3839C0.383301 5.19475 5.62967 0.153442 11.8688 0.153442C15.3203 0.153442 17.7792 1.49692 19.6266 3.24801L17.4439 5.41323C16.1191 4.18062 14.3243 3.22192 11.8655 3.22192C7.30943 3.22192 3.7461 6.86431 3.7461 11.3839C3.7461 15.9034 7.30943 19.5458 11.8655 19.5458C14.8207 19.5458 16.5037 18.3687 17.5819 17.2991C18.4563 16.4317 19.0316 15.1926 19.2584 13.5002L11.8655 13.5034Z" fill="#4285F4"/>
</g>
<defs>
<clipPath id="clip0_1_2711">
<rect width="89.4118" height="30" fill="white" transform="translate(0.264648 0.00012207)"/>
</clipPath>
</defs>
</svg>
