<svg width="115" height="26" viewBox="0 0 115 26" fill="none" xmlns="http://www.w3.org/2000/svg">
<g id="Microsoft Logo" clip-path="url(#clip0_1_2702)">
<path id="Vector" d="M40.619 14.8519L39.9346 16.7792H39.8776C39.7635 16.3446 39.5544 15.6833 39.2122 14.8897L35.5432 5.72542H31.9502V20.3315H34.3265V11.3184C34.3265 10.7516 34.3265 10.1091 34.3075 9.31554C34.2885 8.91874 34.2505 8.61641 34.2315 8.38967H34.2885C34.4025 8.95653 34.5356 9.37222 34.6307 9.63676L39.0411 20.2937H40.714L45.0865 9.54228C45.1815 9.29664 45.2766 8.80536 45.3716 8.38967H45.4287C45.3716 9.4667 45.3336 10.4304 45.3146 11.0161V20.2748H47.843V5.68763H44.3831L40.619 14.8519ZM50.2383 9.80682H52.7097V20.2748H50.2383V9.80682ZM51.493 5.38531C51.0748 5.38531 50.7326 5.53647 50.4474 5.801C50.1623 6.06554 50.0102 6.40565 50.0102 6.82135C50.0102 7.21815 50.1623 7.55827 50.4474 7.8228C50.7326 8.08734 51.0748 8.21961 51.493 8.21961C51.9112 8.21961 52.2724 8.06844 52.5386 7.8228C52.8237 7.55827 52.9758 7.21815 52.9758 6.82135C52.9758 6.42455 52.8237 6.08443 52.5386 5.801C52.2914 5.53647 51.9302 5.38531 51.493 5.38531ZM61.4735 9.71234C61.0173 9.61786 60.542 9.56118 60.0858 9.56118C58.9641 9.56118 57.9376 9.80682 57.0821 10.2981C56.2266 10.7894 55.5422 11.4696 55.105 12.3199C54.6488 13.1891 54.4206 14.1905 54.4206 15.3432C54.4206 16.3446 54.6487 17.2327 55.086 18.0452C55.5232 18.8388 56.1316 19.4812 56.949 19.9158C57.7285 20.3504 58.641 20.5772 59.6675 20.5772C60.8462 20.5772 61.8537 20.3315 62.6522 19.878L62.6712 19.8591V17.5917L62.5761 17.6673C62.2149 17.9318 61.7967 18.1586 61.3785 18.2908C60.9412 18.442 60.542 18.5176 60.1998 18.5176C59.2113 18.5176 58.4318 18.2341 57.8805 17.6106C57.3102 17.0059 57.0251 16.1746 57.0251 15.1353C57.0251 14.0583 57.3102 13.208 57.8996 12.5844C58.4889 11.9609 59.2683 11.6397 60.2188 11.6397C61.0173 11.6397 61.8347 11.9042 62.5761 12.4333L62.6712 12.5089V10.1091L62.6522 10.0902C62.329 9.95798 61.9678 9.80682 61.4735 9.71234ZM69.629 9.63676C69.0207 9.63676 68.4504 9.82571 67.9561 10.2225C67.5379 10.5626 67.2527 11.0539 67.0056 11.6397H66.9866V9.80682H64.5152V20.2748H66.9866V14.9275C66.9866 14.0205 67.1767 13.2647 67.5949 12.7167C68.0131 12.1498 68.5454 11.8664 69.1918 11.8664C69.4199 11.8664 69.648 11.9231 69.9332 11.9609C70.1994 12.0365 70.3895 12.112 70.5225 12.2065L70.6176 12.2821V9.82571L70.5606 9.80682C70.3895 9.69344 70.0473 9.63676 69.629 9.63676ZM76.3588 9.58007C74.6288 9.58007 73.241 10.0902 72.2715 11.0917C71.283 12.0932 70.8077 13.4725 70.8077 15.2109C70.8077 16.8359 71.302 18.1586 72.2525 19.1222C73.203 20.067 74.4957 20.5583 76.1116 20.5583C77.8036 20.5583 79.1533 20.0481 80.1228 19.0277C81.1114 18.0074 81.5867 16.6469 81.5867 14.9652C81.5867 13.3025 81.1304 11.9798 80.1989 11.0161C79.3054 10.0525 77.9937 9.58007 76.3588 9.58007ZM78.3359 17.6295C77.8796 18.2152 77.1572 18.4987 76.2637 18.4987C75.3702 18.4987 74.6478 18.2152 74.1345 17.5917C73.6212 17.0059 73.3741 16.1557 73.3741 15.0786C73.3741 13.9638 73.6403 13.1135 74.1345 12.5089C74.6478 11.9042 75.3512 11.6019 76.2447 11.6019C77.1192 11.6019 77.8036 11.8853 78.2978 12.4711C78.7921 13.0568 79.0583 13.9071 79.0583 15.0219C79.0202 16.1557 78.8111 17.0437 78.3359 17.6295ZM87.0997 14.1527C86.3203 13.8315 85.826 13.5859 85.5979 13.378C85.4078 13.1891 85.3127 12.9245 85.3127 12.5844C85.3127 12.301 85.4268 12.0176 85.7119 11.8286C85.9971 11.6397 86.3203 11.5452 86.7955 11.5452C87.2138 11.5452 87.651 11.6208 88.0692 11.7341C88.4875 11.8475 88.8677 12.0176 89.1719 12.2443L89.2669 12.3199V10.0147L89.2099 9.99577C88.9247 9.8824 88.5445 9.76903 88.0882 9.67455C87.632 9.59897 87.2138 9.56118 86.8716 9.56118C85.6929 9.56118 84.7234 9.84461 83.963 10.4682C83.2025 11.0539 82.8413 11.8475 82.8413 12.7734C82.8413 13.2647 82.9174 13.6993 83.0885 14.0583C83.2596 14.4173 83.5067 14.7574 83.8489 15.0408C84.1911 15.3054 84.6854 15.6077 85.3697 15.8911C85.9401 16.1368 86.3773 16.3257 86.6434 16.4769C86.9096 16.628 87.0807 16.7981 87.2138 16.9304C87.3088 17.0815 87.3659 17.2705 87.3659 17.5161C87.3659 18.2152 86.8336 18.5554 85.75 18.5554C85.3317 18.5554 84.8945 18.4798 84.3812 18.3097C83.8679 18.1397 83.3927 17.894 82.9934 17.6106L82.8984 17.535V19.9347L82.9554 19.9536C83.3166 20.1237 83.7539 20.237 84.2861 20.3693C84.8184 20.4638 85.2937 20.5394 85.7119 20.5394C86.9856 20.5394 88.0312 20.2559 88.7726 19.6324C89.5331 19.0277 89.9323 18.253 89.9323 17.2516C89.9323 16.5525 89.7422 15.9289 89.3239 15.4565C88.7726 15.003 88.0883 14.5307 87.0997 14.1527ZM96.4529 9.58007C94.7229 9.58007 93.3352 10.0902 92.3656 11.0917C91.3961 12.0932 90.9018 13.4725 90.9018 15.2109C90.9018 16.8359 91.3961 18.1586 92.3466 19.1222C93.2971 20.067 94.5898 20.5583 96.2057 20.5583C97.8977 20.5583 99.2474 20.0481 100.217 19.0277C101.206 18.0074 101.681 16.6469 101.681 14.9652C101.681 13.3025 101.225 11.9798 100.293 11.0161C99.3995 10.0525 98.0878 9.58007 96.4529 9.58007ZM98.411 17.6295C97.9547 18.2152 97.2323 18.4987 96.3388 18.4987C95.4263 18.4987 94.7229 18.2152 94.2096 17.5917C93.6964 17.0059 93.4492 16.1557 93.4492 15.0786C93.4492 13.9638 93.7154 13.1135 94.2096 12.5089C94.7229 11.9042 95.4263 11.6019 96.3198 11.6019C97.1753 11.6019 97.8787 11.8853 98.3729 12.4711C98.8672 13.0568 99.1334 13.9071 99.1334 15.0219C99.1334 16.1557 98.8862 17.0437 98.411 17.6295ZM114.893 11.8286V9.80682H112.403V6.70798L112.327 6.72687L109.969 7.426L109.912 7.4449V9.80682H106.186V8.48414C106.186 7.87949 106.338 7.40711 106.604 7.10478C106.871 6.80246 107.27 6.65129 107.764 6.65129C108.106 6.65129 108.468 6.72687 108.867 6.89693L108.962 6.95362V4.81844L108.905 4.79955C108.563 4.68618 108.106 4.6106 107.517 4.6106C106.776 4.6106 106.129 4.78065 105.54 5.06408C104.951 5.3853 104.513 5.8199 104.19 6.40565C103.867 6.97251 103.696 7.61496 103.696 8.35188V9.80682H101.966V11.8097H103.696V20.2748H106.186V11.8286H109.912V17.2138C109.912 19.4246 110.958 20.5394 113.049 20.5394C113.391 20.5394 113.752 20.4827 114.095 20.426C114.456 20.3504 114.722 20.2559 114.874 20.1804L114.893 20.1615V18.1397L114.798 18.2152C114.646 18.3097 114.513 18.3853 114.285 18.442C114.095 18.4987 113.924 18.5176 113.79 18.5176C113.296 18.5176 112.954 18.4042 112.707 18.1208C112.479 17.8562 112.365 17.4216 112.365 16.7792V11.8286H114.893Z" fill="#737373"/>
<path id="Vector_2" d="M0.0883789 0.812622H11.7418V12.3955H0.0883789V0.812622Z" fill="#F25022"/>
<path id="Vector_3" d="M12.9585 0.812622H24.6119V12.3955H12.9585V0.812622Z" fill="#7FBA00"/>
<path id="Vector_4" d="M0.0883789 13.6048H11.7418V25.1876H0.0883789V13.6048Z" fill="#00A4EF"/>
<path id="Vector_5" d="M12.9585 13.6048H24.6119V25.1876H12.9585V13.6048Z" fill="#FFB900"/>
</g>
<defs>
<clipPath id="clip0_1_2702">
<rect width="114.824" height="24.375" fill="white" transform="translate(0.0883789 0.812622)"/>
</clipPath>
</defs>
</svg>
