<svg width="93" height="32" viewBox="0 0 93 32" fill="none" xmlns="http://www.w3.org/2000/svg">
<g id="OLA logo" clip-path="url(#clip0_1_2720)">
<g id="Group">
<path id="Vector" fill-rule="evenodd" clip-rule="evenodd" d="M81.6776 14.9134L75.8073 25.0706L70.7988 25.0905L81.6776 5.97248L92.5157 25.0905H87.4279L81.6776 14.9124V14.9134ZM65.8707 20.6688H71.4802L68.8757 25.0905H61.5644L61.5842 19.7066V6.09002H65.8915L65.8716 20.6688H65.8707ZM50.4862 6.09102C55.8349 6.11094 60.162 10.3543 60.1421 15.5997C60.1223 20.8262 55.7952 25.0706 50.4455 25.0706C45.1167 25.0507 40.7896 20.8073 40.7896 15.5609C40.8094 10.3344 45.1366 6.09102 50.4862 6.09102ZM50.4664 20.6499C53.3306 20.6499 55.6335 18.3898 55.6335 15.5997C55.6544 12.8107 53.3306 10.5306 50.4862 10.5306C47.6408 10.5107 45.3171 12.7907 45.3171 15.5808C45.2972 18.3699 47.621 20.6499 50.4654 20.6499H50.4664ZM32.8167 14.0906C32.7572 13.3037 32.5559 12.2628 32.2554 11.2617C31.637 9.19397 30.562 7.29302 29.1104 5.70055C28.3487 4.87578 27.4879 4.10879 26.2045 3.20533C25.2262 2.72043 24.2643 2.20284 23.3204 1.65342C22.6996 1.29981 21.9577 0.866504 20.9769 0.552735C19.8138 0.277018 18.625 0.125764 17.4303 0.101504C16.2699 0.0616607 15.1065 0.16127 13.9848 0.376426C12.8026 0.572657 11.8208 0.886426 10.5186 1.20119C7.57299 2.47818 5.28992 4.40363 3.3262 6.95861C-3.525 16.5659 2.66568 30.0252 14.1048 31.6159C15.9882 31.8719 17.8716 31.7733 19.6538 31.3609L20.9164 31.0272C20.956 31.0073 21.0165 30.9874 21.0562 30.9874L22.4992 30.4375C22.5786 30.3977 22.6391 30.3778 22.7194 30.3389L23.3204 30.064C24.4736 29.4924 25.5561 28.787 26.5457 27.9622C25.6449 28.7843 24.6652 29.5147 23.6209 30.1427L23.6804 30.1825C23.8818 30.1228 24.0613 30.064 24.2616 30.0252C24.2616 30.0252 24.2616 30.3389 24.222 30.2802C23.9016 30.5162 24.4025 30.3001 25.0431 29.9654C25.6848 29.6317 26.3057 29.2183 26.866 28.7472C27.6882 28.0599 28.4092 27.3128 29.4308 26.0956C30.4721 24.2677 31.7753 22.676 32.3763 20.5344C32.5767 19.9646 32.7562 19.2972 32.8772 18.6089C32.9962 17.9216 33.0775 17.2144 33.0775 16.4872C33.0577 15.7601 32.9774 15.013 32.8167 14.0906ZM17.9916 30.2413C21.4975 29.6905 24.4421 27.7461 26.8462 25.0935C27.5077 24.1303 28.0284 23.2457 28.6691 22.2835C29.4704 20.3182 29.4109 18.5701 29.6708 17.3329C29.9921 15.0917 29.2304 13.2848 28.5897 11.3594C27.6079 9.11914 26.3057 7.44969 24.0216 6.15277C18.2515 2.5768 10.3986 3.57787 6.65262 8.92291C6.63279 8.92291 6.53163 9.06037 6.33129 9.33529C6.59212 8.23561 7.25364 7.58715 7.91416 6.95762C9.87788 5.34693 12.1619 4.06895 14.7664 3.44141C17.7119 3.12664 20.6357 3.44141 23.2599 4.7184C27.1874 6.95762 29.7918 10.4758 30.4523 14.6395V18.4914C29.6311 24.7987 24.222 29.5929 17.9916 30.2413ZM32.3962 15.8976C32.2554 6.66377 23.1003 0.435196 14.1852 1.69326C11.5808 2.34072 8.73536 3.63764 6.71213 5.44555C5.73027 6.09301 5.27009 7.29231 4.28823 8.25453C0.360788 14.012 1.04313 21.3801 5.93061 25.8605C6.55754 26.483 7.22697 27.0608 7.934 27.5897C3.84788 25.1323 2.00416 21.4179 1.36347 16.9006C1.36347 15.2889 1.68382 13.6972 2.024 12.0865C4.30905 5.03217 11.5004 -0.0957221 19.3345 1.20119C20.6367 1.51596 21.9389 1.84965 23.2619 2.16441C24.9043 2.81188 26.5268 3.7751 27.8291 5.05309C29.1313 6.32908 30.1131 7.94076 31.095 9.53152C31.7555 10.8095 32.0768 12.4202 32.3972 13.6972C32.4567 14.4243 32.4567 15.1714 32.3972 15.8986L32.3962 15.8976Z" fill="#1D1E25"/>
<path id="Vector_2" fill-rule="evenodd" clip-rule="evenodd" d="M24.2627 16.0359C24.2627 20.0053 20.9373 23.2277 16.8303 23.2277C12.7244 23.2277 9.39795 20.0053 9.39795 16.0359C9.39795 12.0675 12.7234 8.84509 16.8303 8.84509C20.9373 8.84509 24.2627 12.0675 24.2627 16.0369V16.0359Z" fill="white"/>
<path id="Vector_3" fill-rule="evenodd" clip-rule="evenodd" d="M24.3031 14.8177C24.2029 14.2679 24.0423 13.8356 23.8826 13.227C23.2409 11.8902 22.2997 10.8493 21.057 9.96477C16.4096 6.88086 10.0185 9.84723 9.33818 15.1136C9.07834 17.1964 9.8192 19.2005 11.1412 20.7335C10.7406 20.3202 10.3002 19.8888 9.9997 19.3968L9.96003 19.4366C9.9997 19.5542 10.1604 19.6329 10.2 19.7504C10.2 19.7504 10.0394 19.7504 10.08 19.7305C9.96003 19.594 10.0602 19.8102 10.2397 20.104C10.4004 20.3988 10.6007 20.6748 10.8407 20.9298C11.1819 21.3033 11.5419 21.637 12.1429 22.0892C13.0256 22.5405 13.8061 23.1301 14.8277 23.4051C15.1083 23.4847 15.4287 23.5624 15.75 23.6212C16.0902 23.681 16.4105 23.7009 16.7716 23.7009C17.1117 23.7009 17.4727 23.6611 17.9131 23.5814C18.3672 23.5276 18.816 23.436 19.255 23.3074C20.2354 23.011 21.1386 22.5008 21.9 21.8133C22.2809 21.4607 22.8224 21.0085 23.2419 20.4188C23.5831 19.7514 23.6228 19.4167 23.7834 19.1219C23.9431 18.827 24.1434 18.4933 24.2843 18.0411C24.3991 17.5046 24.4661 16.9589 24.4846 16.4105C24.4648 15.8606 24.4251 15.3297 24.3041 14.8187L24.3031 14.8177ZM19.5346 11.1641C20.216 11.5565 20.3162 11.6153 19.9552 11.3603C20.4768 11.4778 20.7972 11.7727 21.1175 12.0675C21.899 12.9521 22.5397 13.993 22.8601 15.1913C23.0406 16.547 22.8997 17.9026 22.3196 19.1019C21.2782 20.9288 19.615 22.147 17.6314 22.4807C17.4113 22.4807 17.1712 22.4807 16.9501 22.5006C17.5114 22.402 17.8724 22.0484 18.894 21.6748C19.9948 21.2824 21.2375 19.4555 21.8395 18.3937C23.6019 15.505 21.5182 12.8335 19.5346 11.1641ZM15.7689 22.5195C12.7241 22.2058 10.3795 19.7105 10.0592 16.8219C10.3389 18.4336 11.3009 19.6707 12.6031 20.7714C13.0643 21.0662 13.7446 21.4786 14.2058 21.7735C14.9873 22.0683 15.4475 22.3831 16.2092 22.5205H15.7689V22.5195ZM23.9619 17.2741C23.8231 17.8837 23.6823 18.4724 23.5414 19.082C23.2409 19.8291 22.8006 20.5951 22.1996 21.2037C21.5985 21.8133 20.8369 22.2845 20.0762 22.7367C19.4751 23.0505 18.7135 23.2078 18.0926 23.3642C17.7316 23.4041 17.3111 23.2467 16.9501 23.2278C21.3982 23.1092 24.443 18.9645 23.7824 14.8576C23.4611 13.6593 22.8204 12.6174 22.0389 11.5764C21.7185 11.1242 21.0967 10.8493 20.6365 10.3971C17.8516 8.64893 14.1662 9.00254 12.0626 11.3015C11.7676 11.6036 11.493 11.9251 11.2404 12.2637C12.3631 10.6132 14.1662 9.45477 16.3292 9.12008C17.0909 9.10016 17.8724 9.23861 18.6331 9.37607C21.9992 10.3971 24.5035 13.6593 23.9619 17.2751V17.2741Z" fill="#D7DF23"/>
</g>
</g>
<defs>
<clipPath id="clip0_1_2720">
<rect width="92.2353" height="31.875" fill="white" transform="translate(0.382324 0.0626221)"/>
</clipPath>
</defs>
</svg>
